<?xml version="1.0" standalone="yes"?>
<svg xmlns="http://www.w3.org/2000/svg" width="209" height="201">
<path style="fill:#ffffff; stroke:none;" d="M0 0L0 201L209 201L209 0L0 0z"/>
<path style="fill:#fcf3dd; stroke:none;" d="M171 16C173.535 17.1394 176.256 17.4818 179 18C176.44 16.0582 174.192 16.035 171 16z"/>
<path style="fill:#f5d174; stroke:none;" d="M171.465 18.0316C162.233 23.5355 169.672 37.5335 178.772 31.9722C186.204 27.4299 179.908 12.9972 171.465 18.0316z"/>
<path style="fill:#f7da8f; stroke:none;" d="M166 24C168.08 22.1583 169.509 20.3497 171 18C168.082 19.5169 167.078 20.8927 166 24z"/>
<path style="fill:#f6d684; stroke:none;" d="M160 19L160 23L163 23L163 19L160 19z"/>
<path style="fill:#faeabf; stroke:none;" d="M163 19L163 22C163.696 20.4463 163.696 20.5537 163 19z"/>
<path style="fill:#f5f7f2; stroke:none;" d="M93 20C96.4837 21.4618 100.261 20.8756 104 21.0394C109.615 21.2852 115.475 21.9742 121 23C114.38 17.9836 101 20 93 20z"/>
<path style="fill:#fbedc9; stroke:none;" d="M159.333 20.6667C159.278 20.7222 159.222 21.7778 159.667 21.3333C159.722 21.2778 159.778 20.2223 159.333 20.6667z"/>
<path style="fill:#dde6d5; stroke:none;" d="M26 120C36.0503 121.037 40.3202 131.04 30 136C37.9778 141.5 42.0512 152.055 49.0394 158.965C64.6707 174.421 87.3438 181.395 109 179.91C136.89 177.999 162.302 160.492 174.966 135.715C188.481 109.273 185.059 74.0211 166.381 51C133.686 10.7019 68.6092 11.2318 38.304 54C23.8886 74.3438 22.9921 96.2204 26 120z"/>
<path style="fill:#f8df9f; stroke:none;" d="M182 22L182 27C182.83 24.9695 182.83 24.0305 182 22z"/>
<path style="fill:#fcf3da; stroke:none;" d="M183 23L183 27C183.71 25.2405 183.71 24.7595 183 23z"/>
<path style="fill:#eef3ea; stroke:none;" d="M130 25C131.223 26.1952 131.42 26.3164 133 27C131.777 25.8048 131.58 25.6836 130 25z"/>
<path style="fill:#fbedca; stroke:none;" d="M166.333 27.6667C166.278 27.7222 166.222 28.7778 166.667 28.3333C166.722 28.2777 166.778 27.2223 166.333 27.6667z"/>
<path style="fill:#fcf2d9; stroke:none;" d="M182 27L181 31C182.303 29.3324 182.553 29.0078 182 27z"/>
<path style="fill:#f8df9f; stroke:none;" d="M167 28C167.674 30.2974 167.965 30.7741 170 32C169.041 30.4031 168.274 29.3411 167 28z"/>
<path style="fill:#f9e4ad; stroke:none;" d="M172 33C173.769 33.7789 175.036 33.9124 177 34C175.231 33.2211 173.964 33.0876 172 33z"/>
<path style="fill:#eef3eb; stroke:none;" d="M147 34C148.223 35.1952 148.42 35.3164 150 36C148.777 34.8049 148.58 34.6836 147 34z"/>
<path style="fill:#f7f9f5; stroke:none;" d="M91 36C91.1754 38.6116 91.9704 41.3948 91.6204 44C90.8228 49.9356 80.9976 66.0741 91 69C90.4384 65.6809 89.0281 62.4068 89.561 59C90.7373 51.4789 97.6763 42.538 91 36z"/>
<path style="fill:#fafbf9; stroke:none;" d="M105 36C105.094 38.2049 105.356 39.8941 106 42C106.874 39.9479 106.953 38.2528 107 36L105 36z"/>
<path style="fill:#fbfbf9; stroke:none;" d="M118 36C118.896 43.088 118.075 47.2519 116 54C121.857 50.5901 121.735 41.8687 120 36L118 36z"/>
<path style="fill:#ecf1e7; stroke:none;" d="M118 39C117.99 42.7627 117.687 46.2995 117 50C119.424 46.8007 119.547 42.6867 118 39z"/>
<path style="fill:#fae6b3; stroke:none;" d="M180 42L185 41C182.7 40.0843 181.623 40.1207 180 42z"/>
<path style="fill:#f5d174; stroke:none;" d="M180 48C181.16 47.9619 182.766 48.1239 183.897 47.6821C190.303 45.1779 182.822 37.6969 180.318 44.1034C179.876 45.2336 180.038 46.8395 180 48z"/>
<path style="fill:#fbf0d1; stroke:none;" d="M178 42L178 47C178.83 44.9695 178.83 44.0305 178 42z"/>
<path style="fill:#f7dc95; stroke:none;" d="M179 42L179 47C179.83 44.9695 179.83 44.0305 179 42z"/>
<path style="fill:#fcf1d6; stroke:none;" d="M187 42L187 47C187.83 44.9695 187.83 44.0305 187 42z"/>
<path style="fill:#f9faf7; stroke:none;" d="M105 46L104 52C106.221 50.3253 106.562 48.7434 107 46L105 46z"/>
<path style="fill:#f8dfa1; stroke:none;" d="M181 48C182.506 48.683 183.315 48.8259 185 49C183.494 48.317 182.685 48.1741 181 48z"/>
<path style="fill:#fdf6e4; stroke:none;" d="M181 49C182.506 49.683 183.315 49.8259 185 50C183.494 49.317 182.685 49.1741 181 49z"/>
<path style="fill:#fcf4dd; stroke:none;" d="M22 50C23.506 50.683 24.3148 50.8259 26 51C24.494 50.317 23.6852 50.1741 22 50z"/>
<path style="fill:#f8e2a6; stroke:none;" d="M21 51C22.7691 51.7789 24.0359 51.9124 26 52C24.231 51.2211 22.9641 51.0876 21 51z"/>
<path style="fill:#f5d174; stroke:none;" d="M27 59L27 52C18.9594 52.264 18.9594 58.736 27 59z"/>
<path style="fill:#fcf1d5; stroke:none;" d="M19 53L19 58C19.8299 55.9695 19.8299 55.0305 19 53z"/>
<path style="fill:#f7db94; stroke:none;" d="M27 53L27 58C27.8299 55.9695 27.8299 55.0305 27 53z"/>
<path style="fill:#fbefd0; stroke:none;" d="M28 53L28 57C28.7102 55.2405 28.7102 54.7595 28 53z"/>
<path style="fill:#f8f9f6; stroke:none;" d="M102 54C100.796 59.0715 100.278 65.705 105 69C104.589 63.7871 104.589 59.2129 105 54L102 54z"/>
<path style="fill:#fcfdfc; stroke:none;" d="M115 58C115.011 61.9161 114.58 65.5839 118 68L117 58L115 58z"/>
<path style="fill:#fae9bd; stroke:none;" d="M22 59C23.506 59.683 24.3148 59.8259 26 60C24.494 59.317 23.6852 59.1741 22 59z"/>
<path style="fill:#edd895; stroke:none;" d="M166 64L166 68L170 68L170 64L166 64z"/>
<path style="fill:#f4d278; stroke:none;" d="M167 65L167 67L169 67L169 65L167 65z"/>
<path style="fill:#eff3eb; stroke:none;" d="M63 74C69.6777 76.8021 79.7844 75 87 75L141 75C134.322 72.1979 124.216 74 117 74L63 74z"/>
<path style="fill:#fdfdfc; stroke:none;" d="M61 75C61 94.2097 62.4273 111.747 74 128C69.5801 128 58.8734 126.052 55.6466 129.603C53.6483 131.803 55.2779 134.906 56.564 136.999C60.0553 142.682 64.3483 145.803 71 146C65.765 141.078 60.0931 137.863 57 131L149 131C141.73 145.999 127.309 146 113 146L73 146C78.4625 148.292 86.113 147 92 147L122 147C127.064 147 132.991 147.82 137.91 146.442C142.907 145.043 147.318 140.335 149.866 135.997C150.996 134.073 152.552 130.987 150.381 129.179C146.553 125.99 135.764 128 131 128C132.642 124.916 134.316 120.979 137.329 118.988C145.014 113.911 154.735 113.97 160.142 104.996C164.289 98.1132 161.619 88.7063 152.999 88.0548C150.025 87.83 146.982 88 144 88C144 84.8203 145.218 78.2622 142.397 76.0278C140.719 74.6987 137.992 75.0145 136 75.0008L121 75L61 75z"/>
<path style="fill:#eef3ea; stroke:none;" d="M60 77L60 85C61.1614 82.2301 61.1614 79.7699 60 77z"/>
<path style="fill:#fcf1ec; stroke:none;" d="M64 77C70.6777 79.8021 80.7844 78 88 78L141 78C134.322 75.1979 124.216 77 117 77L64 77z"/>
<path style="fill:#fbe9e2; stroke:none;" d="M63 78C63 83.7589 63.5487 89.2817 64 95C66.0207 90.1844 65.0382 82.725 63 78z"/>
<path style="fill:#f8d3c5; stroke:none;" d="M64 78C64.1028 90.4124 65.08 102.437 69.6559 113.999C71.3415 118.258 73.3708 123.278 76.9012 126.4C81.2925 130.284 93.4284 128 99 128L117 128C119.733 128 123.133 128.492 125.711 127.397C129.769 125.673 131.456 120.837 133.47 117.285C140.279 105.281 140.991 91.5483 141 78L64 78z"/>
<path style="fill:#fae1d8; stroke:none;" d="M100 81C105.582 83.3422 112.946 81.8762 119 83C114.213 79.3733 105.819 81 100 81z"/>
<path style="fill:#fefbf9; stroke:none;" d="M68 82C75.6488 85.2096 87.7122 83 96 83C88.3512 79.7904 76.2878 82 68 82z"/>
<path style="fill:#fdf3ef; stroke:none;" d="M100 82C104.974 84.0872 111.638 83 117 83C112.026 80.9128 105.362 82 100 82z"/>
<path style="fill:#fefbf9; stroke:none;" d="M124 82C127.432 83.4403 131.3 83 135 83C131.568 81.5597 127.7 82 124 82z"/>
<path style="fill:#fdf3f0; stroke:none;" d="M131 86L131 95L134 95L134 86L131 86z"/>
<path style="fill:#fbe5dd; stroke:none;" d="M140 87L140 95C141.161 92.2302 141.161 89.7698 140 87z"/>
<path style="fill:#f5f7f2; stroke:none;" d="M23 90L23 107C24.8826 102.514 24.8826 94.4865 23 90z"/>
<path style="fill:#eff3eb; stroke:none;" d="M144 91C147.41 92.0489 151.39 91.0299 155 91C151.393 89.4871 147.741 90.1095 144 91z"/>
<path style="fill:#f5f7f2; stroke:none;" d="M183 90L182 115C184.721 108.692 185.68 96.3867 183 90z"/>
<path style="fill:#dde6d5; stroke:none;" d="M143 92C141.628 99.3842 141.282 106.802 139 114C145.636 112.871 153.405 109.496 157.566 103.981C162.164 97.8886 158.4 91.2227 151 91.0833C148.329 91.033 145.64 91.6664 143 92z"/>
<path style="fill:#fffdfc; stroke:none;" d="M130 98L129 104C131.221 102.325 131.562 100.743 132 98L130 98z"/>
<path style="fill:#e6ede0; stroke:none;" d="M62 102C62.3269 105.997 63.2003 109.414 65 113C65.7816 109.291 64.1719 105.044 62 102z"/>
<path style="fill:#f5d174; stroke:none;" d="M33.3179 103.747C28.1637 106.252 32.1188 114.734 37.7724 112.381C43.8156 109.866 39.3167 100.831 33.3179 103.747z"/>
<path style="fill:#fef8f5; stroke:none;" d="M127 107C125.565 113.179 121.739 117.993 120 124C125.769 120.835 128.264 113.072 130 107L127 107z"/>
<path style="fill:#fbe6de; stroke:none;" d="M67 109C67.6836 110.58 67.8048 110.777 69 112C68.3164 110.42 68.1952 110.223 67 109z"/>
<path style="fill:#efd892; stroke:none;" d="M21 125C24.3821 122.872 26.9668 121.301 31 121C26.5251 119.145 23.1107 120.815 21 125z"/>
<path style="fill:#f5d174; stroke:none;" d="M25.0193 121.988C14.8183 126.836 24.3164 139.872 32.8665 134.972C41.7496 129.882 34.0122 117.715 25.0193 121.988z"/>
<path style="fill:#eef3ea; stroke:none;" d="M179 123C178.12 125.326 177.507 127.564 177 130C178.981 127.723 179.866 125.952 179 123z"/>
<path style="fill:#fdf3dc; stroke:none;" d="M19 124L19 131C20.0095 128.767 20.4052 126.396 21 124L19 124z"/>
<path style="fill:#fcf1ec; stroke:none;" d="M78 128C82.7199 129.981 88.9198 129 94 129L126 129C121.28 127.019 115.08 128 110 128L78 128z"/>
<path style="fill:#f9e6b4; stroke:none;" d="M20 130L20 133C20.6961 131.446 20.6961 131.554 20 130z"/>
<path style="fill:#fbeae3; stroke:none;" d="M57 131L58 135C58.4794 133.502 58.4001 133.65 58 132L123 132C130.029 132 142.253 129.646 148 134C149.226 130.748 145.529 131.024 143 131C137.668 130.95 132.333 131 127 131L57 131z"/>
<path style="fill:#f8d3c5; stroke:none;" d="M58 132C60.0542 136.9 62.575 141.637 68.0008 143.347C74.5404 145.408 83.1954 144 90 144L120 144C125.068 144 131.067 144.861 136 143.57C141.645 142.093 145.969 137.227 148 132L58 132z"/>
<path style="fill:#f7dd97; stroke:none;" d="M21 133C23.6545 136.188 25.8998 136.868 30 137L21 133z"/>
<path style="fill:#edd893; stroke:none;" d="M39 138L42 136C39.8603 134.882 39.4732 135.749 39 138z"/>
<path style="fill:#fbeae3; stroke:none;" d="M65 135L65 137L120 137L120 135L65 135z"/>
<path style="fill:#fbe6de; stroke:none;" d="M125 135L125 137L142 137L142 135L125 135z"/>
<path style="fill:#f5d176; stroke:none;" d="M40 139C42.1236 138.101 42.1007 138.124 43 136C40.636 136.482 40.4825 136.636 40 139z"/>
<path style="fill:#eef3eb; stroke:none;" d="M37 144C37.6836 145.58 37.8048 145.777 39 147C38.3164 145.42 38.1952 145.223 37 144z"/>
<path style="fill:#fbe2d9; stroke:none;" d="M69 144C74.951 146.497 83.5798 145 90 145L136 145C130.049 142.503 121.42 144 115 144L69 144z"/>
<path style="fill:#f4f7f1; stroke:none;" d="M66 146C72.0404 149.618 81.1688 148 88 148L137 148C131.293 145.605 123.154 147 117 147L73 147C79.5837 145.054 87.1658 146 94 146L133 146C127.049 143.503 118.42 145 112 145C96.6127 145 81.3155 144.791 66 146z"/>
<path style="fill:#f8e0a1; stroke:none;" d="M168 152C169.506 152.683 170.315 152.826 172 153C170.494 152.317 169.685 152.174 168 152z"/>
<path style="fill:#f5d174; stroke:none;" d="M167 153C167.582 160.633 173.742 160.869 174 153L167 153z"/>
<path style="fill:#f8de99; stroke:none;" d="M166 154C166.335 158.394 167.556 160.291 172 161C169.512 158.871 167.773 156.736 166 154z"/>
<path style="fill:#faebc4; stroke:none;" d="M174 154L174 158C174.71 156.241 174.71 155.759 174 154z"/>
<path style="fill:#f3f6ef; stroke:none;" d="M140 172L146 169C143.099 168.517 141.592 169.59 140 172z"/>
<path style="fill:#fcefcf; stroke:none;" d="M47 177L52 176C49.6996 175.084 48.6232 175.121 47 177z"/>
<path style="fill:#f7da8f; stroke:none;" d="M48 176C49.506 176.683 50.3148 176.826 52 177C50.494 176.317 49.6852 176.174 48 176z"/>
<path style="fill:#f5d174; stroke:none;" d="M46 177C46.264 185.041 52.736 185.041 53 177L46 177z"/>
<path style="fill:#f8dfa0; stroke:none;" d="M53 177L53 182C53.8299 179.97 53.8299 179.03 53 177z"/>
<path style="fill:#fbebc3; stroke:none;" d="M45 178L45 182C45.7102 180.241 45.7102 179.759 45 178z"/>
<path style="fill:#fdf3db; stroke:none;" d="M54 178L54 182C54.7102 180.241 54.7102 179.759 54 178z"/>
<path style="fill:#f5f7f2; stroke:none;" d="M93 180C97.974 182.087 104.638 181 110 181C105.026 178.913 98.3619 180 93 180z"/>
<path style="fill:#fcf1d4; stroke:none;" d="M47 184C48.769 184.779 50.0359 184.912 52 185C50.231 184.221 48.9641 184.088 47 184z"/>
</svg>
