<?xml version="1.0" standalone="yes"?>
<svg xmlns="http://www.w3.org/2000/svg" width="179" height="175">
<path style="fill:#ffffff; stroke:none;" d="M0 0L0 175L179 175L179 0L0 0z"/>
<path style="fill:#fcf3dd; stroke:none;" d="M156 4C158.535 5.1394 161.256 5.48178 164 6C161.44 4.05818 159.192 4.035 156 4z"/>
<path style="fill:#f5d174; stroke:none;" d="M156.465 6.03165C147.233 11.5355 154.672 25.5335 163.772 19.9722C171.204 15.4299 164.908 0.997192 156.465 6.03165z"/>
<path style="fill:#f7da8f; stroke:none;" d="M151 12C153.08 10.1583 154.509 8.34975 156 6C153.082 7.51688 152.078 8.89264 151 12z"/>
<path style="fill:#f6d684; stroke:none;" d="M145 7L145 11L148 11L148 7L145 7z"/>
<path style="fill:#faeabf; stroke:none;" d="M148 7L148 10C148.696 8.44627 148.696 8.55371 148 7z"/>
<path style="fill:#f5f7f2; stroke:none;" d="M78 8C81.4838 9.46184 85.2609 8.87563 89 9.03935C94.6153 9.28525 100.475 9.97423 106 11C99.38 5.98363 86 8 78 8z"/>
<path style="fill:#fbedc9; stroke:none;" d="M144.333 8.66667C144.278 8.72221 144.222 9.77777 144.667 9.33333C144.722 9.27776 144.778 8.22226 144.333 8.66667z"/>
<path style="fill:#dde6d5; stroke:none;" d="M11 108C21.0504 109.037 25.3202 119.04 15 124C22.9778 129.5 27.0512 140.055 34.0394 146.965C49.6707 162.421 72.3438 169.395 94 167.91C121.89 165.999 147.302 148.492 159.966 123.715C173.481 97.2731 170.059 62.0211 151.381 39C118.686 -1.29813 53.6092 -0.768173 23.304 42C8.8886 62.3438 7.99212 84.2204 11 108z"/>
<path style="fill:#f8df9f; stroke:none;" d="M167 10L167 15C167.83 12.9695 167.83 12.0305 167 10z"/>
<path style="fill:#fcf3da; stroke:none;" d="M168 11L168 15C168.71 13.2405 168.71 12.7595 168 11z"/>
<path style="fill:#eef3ea; stroke:none;" d="M115 13C116.223 14.1951 116.42 14.3164 118 15C116.777 13.8048 116.58 13.6836 115 13z"/>
<path style="fill:#fbedca; stroke:none;" d="M151.333 15.6667C151.278 15.7222 151.222 16.7778 151.667 16.3333C151.722 16.2778 151.778 15.2222 151.333 15.6667z"/>
<path style="fill:#fcf2d9; stroke:none;" d="M167 15L166 19C167.303 17.3324 167.553 17.0078 167 15z"/>
<path style="fill:#f8df9f; stroke:none;" d="M152 16C152.674 18.2974 152.965 18.7741 155 20C154.041 18.4031 153.274 17.3411 152 16z"/>
<path style="fill:#f9e4ad; stroke:none;" d="M157 21C158.769 21.7789 160.036 21.9124 162 22C160.231 21.2211 158.964 21.0876 157 21z"/>
<path style="fill:#eef3eb; stroke:none;" d="M132 22C133.223 23.1952 133.42 23.3164 135 24C133.777 22.8048 133.58 22.6836 132 22z"/>
<path style="fill:#c1c9c6; stroke:none;" d="M74 26C75.4566 24.8966 75.8966 24.4566 77 23C74.8764 23.8993 74.8993 23.8764 74 26z"/>
<path style="fill:#c6cec9; stroke:none;" d="M88 26L92 24C89.5878 22.6452 88.5676 23.3511 88 26z"/>
<path style="fill:#a7aeb9; stroke:none;" d="M103.667 23.3333C103.222 23.7778 104.278 23.7222 104.333 23.6667C104.778 23.2222 103.722 23.2778 103.667 23.3333z"/>
<path style="fill:#646796; stroke:none;" d="M76 24L77 25L76 24z"/>
<path style="fill:#8a8faa; stroke:none;" d="M89.3333 24.6667C89.2778 24.7222 89.2222 25.7778 89.6667 25.3333C89.7223 25.2777 89.7778 24.2223 89.3333 24.6667z"/>
<path style="fill:#34367e; stroke:none;" d="M90 24C90.0941 26.2049 90.3562 27.8941 91 30C91.7355 27.5667 91.3054 26.1807 90 24z"/>
<path style="fill:#74789f; stroke:none;" d="M91 24L91 27C91.6961 25.4463 91.6961 25.5537 91 24z"/>
<path style="fill:#c0c8c6; stroke:none;" d="M92 24L92 27C92.6961 25.4463 92.6961 25.5537 92 24z"/>
<path style="fill:#a8afba; stroke:none;" d="M102.333 24.6667C102.278 24.7222 102.222 25.7778 102.667 25.3333C102.722 25.2777 102.778 24.2223 102.333 24.6667z"/>
<path style="fill:#616495; stroke:none;" d="M103 24L103 27C104.015 25.8607 104.309 25.3884 105 24L103 24z"/>
<path style="fill:#999fb2; stroke:none;" d="M75.3333 25.6667C75.2778 25.7222 75.2222 26.7778 75.6667 26.3333C75.7223 26.2777 75.7778 25.2223 75.3333 25.6667z"/>
<path style="fill:#36387f; stroke:none;" d="M76 25C76.8535 31.9041 74.9103 37.2456 74 44C78.029 39.372 79.5702 30.2259 76 25z"/>
<path style="fill:#54578e; stroke:none;" d="M77.3333 25.6667C77.2778 25.7222 77.2222 26.7778 77.6667 26.3333C77.7223 26.2777 77.7778 25.2223 77.3333 25.6667z"/>
<path style="fill:#282978; stroke:none;" d="M104 25C104.289 29.0896 104.289 32.9105 104 37C106.551 33.2655 106.551 28.7345 104 25z"/>
<path style="fill:#636696; stroke:none;" d="M105.333 25.6667C105.278 25.7222 105.222 26.7778 105.667 26.3333C105.722 26.2777 105.778 25.2223 105.333 25.6667z"/>
<path style="fill:#8a8faa; stroke:none;" d="M78.3333 26.6667C78.2778 26.7222 78.2222 27.7778 78.6667 27.3333C78.7222 27.2778 78.7778 26.2222 78.3333 26.6667z"/>
<path style="fill:#abb2bb; stroke:none;" d="M89 26L89 29C89.6961 27.4463 89.6961 27.5537 89 26z"/>
<path style="fill:#979db1; stroke:none;" d="M92 27L92 30C92.6961 28.4463 92.6961 28.5537 92 27z"/>
<path style="fill:#acb3bc; stroke:none;" d="M103 27L103 34C104.059 31.4657 104.059 29.5343 103 27z"/>
<path style="fill:#858aa8; stroke:none;" d="M76 28L76 34C76.9511 31.7147 76.9511 30.2853 76 28z"/>
<path style="fill:#626696; stroke:none;" d="M78 28L78 34C78.9511 31.7147 78.9511 30.2853 78 28z"/>
<path style="fill:#9da3b4; stroke:none;" d="M106 28L106 33C106.83 30.9695 106.83 30.0305 106 28z"/>
<path style="fill:#fae6b3; stroke:none;" d="M165 30L170 29C167.7 28.0843 166.623 28.1207 165 30z"/>
<path style="fill:#bbc2c3; stroke:none;" d="M79 29L79 34C79.8299 31.9695 79.8299 31.0305 79 29z"/>
<path style="fill:#767aa0; stroke:none;" d="M90 29L91 30L90 29z"/>
<path style="fill:#5e6093; stroke:none;" d="M104 29L104 33C104.71 31.2405 104.71 30.7595 104 29z"/>
<path style="fill:#f5d174; stroke:none;" d="M165 36C166.161 35.9619 167.766 36.1239 168.897 35.6821C175.303 33.1779 167.822 25.6969 165.318 32.1034C164.876 33.2336 165.038 34.8395 165 36z"/>
<path style="fill:#6f739d; stroke:none;" d="M91 30L92 31L91 30z"/>
<path style="fill:#fbf0d1; stroke:none;" d="M163 30L163 35C163.83 32.9695 163.83 32.0305 163 30z"/>
<path style="fill:#f7dc95; stroke:none;" d="M164 30L164 35C164.83 32.9695 164.83 32.0305 164 30z"/>
<path style="fill:#fcf1d6; stroke:none;" d="M172 30L172 35C172.83 32.9695 172.83 32.0305 172 30z"/>
<path style="fill:#8286a6; stroke:none;" d="M91 33L92 34L91 33z"/>
<path style="fill:#a4abb8; stroke:none;" d="M92 33L92 36C92.6961 34.4463 92.6961 34.5537 92 33z"/>
<path style="fill:#a3aab7; stroke:none;" d="M78 34L78 37C78.6961 35.4463 78.6961 35.5537 78 34z"/>
<path style="fill:#b0b7be; stroke:none;" d="M89 34L89 37C89.6961 35.4463 89.6961 35.5537 89 34z"/>
<path style="fill:#7b80a2; stroke:none;" d="M90 34L91 35L90 34z"/>
<path style="fill:#252576; stroke:none;" d="M91 34C90.4382 35.8006 90.1759 37.1219 90 39C91.1326 37.1013 91.4734 36.1429 91 34z"/>
<path style="fill:#696d9a; stroke:none;" d="M103 34L103 37C103.696 35.4463 103.696 35.5537 103 34z"/>
<path style="fill:#6e729c; stroke:none;" d="M77.3333 35.6667C77.2778 35.7222 77.2222 36.7778 77.6667 36.3333C77.7223 36.2777 77.7778 35.2223 77.3333 35.6667z"/>
<path style="fill:#8186a5; stroke:none;" d="M105.333 35.6667C105.278 35.7222 105.222 36.7778 105.667 36.3333C105.722 36.2777 105.778 35.2223 105.333 35.6667z"/>
<path style="fill:#9a9fb2; stroke:none;" d="M75 36L76 37L75 36z"/>
<path style="fill:#8287a6; stroke:none;" d="M91.3333 36.6667C91.2778 36.7222 91.2222 37.7778 91.6667 37.3333C91.7223 37.2777 91.7777 36.2223 91.3333 36.6667z"/>
<path style="fill:#878ca9; stroke:none;" d="M102.333 36.6667C102.278 36.7222 102.222 37.7778 102.667 37.3333C102.722 37.2777 102.778 36.2223 102.333 36.6667z"/>
<path style="fill:#f8dfa1; stroke:none;" d="M166 36C167.506 36.683 168.315 36.8259 170 37C168.494 36.317 167.685 36.1741 166 36z"/>
<path style="fill:#9ca2b4; stroke:none;" d="M74.3333 37.6667C74.2778 37.7222 74.2222 38.7778 74.6667 38.3333C74.7223 38.2777 74.7777 37.2223 74.3333 37.6667z"/>
<path style="fill:#a7aeb9; stroke:none;" d="M77.3333 37.6667C77.2778 37.7222 77.2222 38.7778 77.6667 38.3333C77.7223 38.2777 77.7778 37.2223 77.3333 37.6667z"/>
<path style="fill:#b3babf; stroke:none;" d="M88 37L88 40C88.6961 38.4463 88.6961 38.5537 88 37z"/>
<path style="fill:#676b99; stroke:none;" d="M89 37C89.4057 39.0924 89.2167 39.0197 91 40C90.3086 38.6115 90.0155 38.1394 89 37z"/>
<path style="fill:#444686; stroke:none;" d="M103 37C102.438 38.8006 102.176 40.1218 102 42C103.656 40.3136 104.251 39.2538 105 37L103 37z"/>
<path style="fill:#fdf6e4; stroke:none;" d="M166 37C167.506 37.683 168.315 37.8259 170 38C168.494 37.317 167.685 37.1741 166 37z"/>
<path style="fill:#fcf4dd; stroke:none;" d="M7 38C8.50606 38.683 9.31478 38.8259 11 39C9.49398 38.317 8.68519 38.1741 7 38z"/>
<path style="fill:#f8e2a6; stroke:none;" d="M6 39C7.76904 39.7789 9.03594 39.9124 11 40C9.23095 39.2211 7.96407 39.0876 6 39z"/>
<path style="fill:#a3a9b7; stroke:none;" d="M73 39L73 42C73.6961 40.4463 73.6961 40.5537 73 39z"/>
<path style="fill:#51538d; stroke:none;" d="M74.3333 39.6667C74.2778 39.7222 74.2222 40.7778 74.6667 40.3333C74.7223 40.2777 74.7777 39.2223 74.3333 39.6667z"/>
<path style="fill:#aeb5bd; stroke:none;" d="M104.333 39.6667C104.278 39.7222 104.222 40.7778 104.667 40.3333C104.722 40.2777 104.778 39.2223 104.333 39.6667z"/>
<path style="fill:#f5d174; stroke:none;" d="M12 47L12 40C3.95939 40.264 3.95938 46.736 12 47z"/>
<path style="fill:#abb2bc; stroke:none;" d="M76.3333 40.6667C76.2778 40.7222 76.2222 41.7778 76.6667 41.3333C76.7223 41.2777 76.7777 40.2223 76.3333 40.6667z"/>
<path style="fill:#696d9a; stroke:none;" d="M101.333 40.6667C101.278 40.7222 101.222 41.7778 101.667 41.3333C101.722 41.2777 101.778 40.2223 101.333 40.6667z"/>
<path style="fill:#fcf1d5; stroke:none;" d="M4 41L4 46C4.82989 43.9695 4.82989 43.0305 4 41z"/>
<path style="fill:#f7db94; stroke:none;" d="M12 41L12 46C12.8299 43.9695 12.8299 43.0305 12 41z"/>
<path style="fill:#fbefd0; stroke:none;" d="M13 41L13 45C13.7102 43.2405 13.7102 42.7595 13 41z"/>
<path style="fill:#878ca9; stroke:none;" d="M103 41L104 42L103 41z"/>
<path style="fill:#474988; stroke:none;" d="M73 42C72.0407 47.1674 70.966 52.0495 75 56C74.6572 51.6199 75.2977 45.6918 73 42z"/>
<path style="fill:#9196ad; stroke:none;" d="M87 42L89 45C90.1178 42.8603 89.2508 42.4733 87 42z"/>
<path style="fill:#b2b9bf; stroke:none;" d="M101 42C102.248 42.6848 102.548 42.7488 104 43C102.752 42.3152 102.452 42.2512 101 42z"/>
<path style="fill:#8f94ad; stroke:none;" d="M72.3333 43.6667C72.2778 43.7222 72.2222 44.7778 72.6667 44.3333C72.7222 44.2778 72.7778 43.2223 72.3333 43.6667z"/>
<path style="fill:#9fa5b5; stroke:none;" d="M75.3333 43.6667C75.2778 43.7222 75.2222 44.7778 75.6667 44.3333C75.7222 44.2778 75.7778 43.2222 75.3333 43.6667z"/>
<path style="fill:#36377f; stroke:none;" d="M87 43C86.6167 48.0325 85.3059 53.7246 90 57C88.954 51.902 88.3438 48.2245 89 43L87 43z"/>
<path style="fill:#cdd6cd; stroke:none;" d="M85 44L85 52C86.1614 49.2302 86.1614 46.7699 85 44z"/>
<path style="fill:#8589a7; stroke:none;" d="M86.3333 44.6667C86.2778 44.7222 86.2222 45.7778 86.6667 45.3333C86.7223 45.2777 86.7778 44.2223 86.3333 44.6667z"/>
<path style="fill:#adb4bc; stroke:none;" d="M100.667 45.3333C100.222 45.7778 101.278 45.7222 101.333 45.6667C101.778 45.2223 100.722 45.2777 100.667 45.3333z"/>
<path style="fill:#989eb1; stroke:none;" d="M74 46L74 52C74.9511 49.7147 74.9511 48.2853 74 46z"/>
<path style="fill:#54568e; stroke:none;" d="M86.3333 46.6667C86.2778 46.7222 86.2222 47.7778 86.6667 47.3333C86.7222 47.2778 86.7778 46.2222 86.3333 46.6667z"/>
<path style="fill:#8d92ac; stroke:none;" d="M88 46L88 51C88.8299 48.9695 88.8299 48.0305 88 46z"/>
<path style="fill:#8085a5; stroke:none;" d="M99 46L99 52C99.9511 49.7147 99.9511 48.2853 99 46z"/>
<path style="fill:#222275; stroke:none;" d="M100 46C100.008 49.1691 100.1 51.9592 101 55C101.928 51.9829 101.287 48.8669 100 46z"/>
<path style="fill:#4e508b; stroke:none;" d="M101 46L101 49C101.696 47.4463 101.696 47.5537 101 46z"/>
<path style="fill:#bcc4c4; stroke:none;" d="M102 46L102 53C103.059 50.4657 103.059 48.5343 102 46z"/>
<path style="fill:#fae9bd; stroke:none;" d="M7 47C8.50605 47.683 9.31478 47.8259 11 48C9.49397 47.317 8.6852 47.1741 7 47z"/>
<path style="fill:#b1b8bf; stroke:none;" d="M71 47L71 52C71.8299 49.9695 71.8299 49.0305 71 47z"/>
<path style="fill:#c4ccc8; stroke:none;" d="M98 47L98 52C98.8299 49.9695 98.8299 49.0305 98 47z"/>
<path style="fill:#686b99; stroke:none;" d="M101 49L101 52C101.696 50.4463 101.696 50.5537 101 49z"/>
<path style="fill:#8186a5; stroke:none;" d="M86.3333 51.6667C86.2778 51.7222 86.2222 52.7778 86.6667 52.3333C86.7222 52.2778 86.7778 51.2222 86.3333 51.6667z"/>
<path style="fill:#646897; stroke:none;" d="M88.3333 51.6667C88.2778 51.7222 88.2222 52.7778 88.6667 52.3333C88.7222 52.2778 88.7778 51.2222 88.3333 51.6667z"/>
<path style="fill:#b1b8be; stroke:none;" d="M99 52L99 55C99.6961 53.4463 99.6961 53.5537 99 52z"/>
<path style="fill:#edd895; stroke:none;" d="M151 52L151 56L155 56L155 52L151 52z"/>
<path style="fill:#959cb0; stroke:none;" d="M89 53L90 54L89 53z"/>
<path style="fill:#4c4f8a; stroke:none;" d="M102 53L101 56C102.766 55.0214 102.955 54.7782 102 53z"/>
<path style="fill:#f4d278; stroke:none;" d="M152 53L152 55L154 55L154 53L152 53z"/>
<path style="fill:#8c92ab; stroke:none;" d="M75 54L76 55L75 54z"/>
<path style="fill:#7b7fa2; stroke:none;" d="M100 54L101 55L100 54z"/>
<path style="fill:#999fb2; stroke:none;" d="M103.333 54.6667C103.278 54.7222 103.222 55.7778 103.667 55.3333C103.722 55.2778 103.778 54.2222 103.333 54.6667z"/>
<path style="fill:#9ca2b4; stroke:none;" d="M73.3333 55.6667C73.2778 55.7222 73.2222 56.7778 73.6667 56.3333C73.7222 56.2778 73.7778 55.2222 73.3333 55.6667z"/>
<path style="fill:#6c719b; stroke:none;" d="M75 55L74 57L76 57C76 55.1468 76.2997 55.6498 75 55z"/>
<path style="fill:#8a8faa; stroke:none;" d="M87 55L88 56L87 55z"/>
<path style="fill:#878ba8; stroke:none;" d="M90.3333 55.6667C90.2778 55.7222 90.2222 56.7778 90.6667 56.3333C90.7222 56.2778 90.7778 55.2222 90.3333 55.6667z"/>
<path style="fill:#aeb5bd; stroke:none;" d="M101.667 56.3333C101.222 56.7778 102.278 56.7222 102.333 56.6667C102.778 56.2222 101.722 56.2778 101.667 56.3333z"/>
<path style="fill:#bcc3c4; stroke:none;" d="M74.6667 57.3333C74.2222 57.7778 75.2778 57.7222 75.3333 57.6667C75.7778 57.2222 74.7222 57.2778 74.6667 57.3333z"/>
<path style="fill:#afb6bd; stroke:none;" d="M88 57C89.2483 57.6848 89.5484 57.7488 91 58C89.7516 57.3152 89.4516 57.2512 88 57z"/>
<path style="fill:#767aa0; stroke:none;" d="M48 62C54.6777 64.8021 64.7844 63 72 63L126 63C119.322 60.1979 109.216 62 102 62L48 62z"/>
<path style="fill:#787ca0; stroke:none;" d="M46 63L46 65C47.6352 64.4549 47.455 64.6351 48 63L46 63z"/>
<path style="fill:#31327c; stroke:none;" d="M48 63C54.6777 65.8021 64.7844 64 72 64L126 64C119.322 61.1979 109.216 63 102 63L48 63z"/>
<path style="fill:#8287a6; stroke:none;" d="M126.667 63.3333C126.222 63.7778 127.278 63.7222 127.333 63.6667C127.778 63.2222 126.722 63.2778 126.667 63.3333z"/>
<path style="fill:#191970; stroke:none;" d="M47 64L47 83C49.3422 77.4182 47.8761 70.0535 49 64L47 64z"/>
<path style="fill:#222375; stroke:none;" d="M49 64C55.6777 66.8021 65.7844 65 73 65L126 65C126 78.9064 125.45 91.2373 119.294 104C117.422 107.882 115.242 112.622 111.675 115.258C106.759 118.891 96.8124 117 91 117C83.4743 117 72.0963 119.131 65.0401 116.397C61.4593 115.009 59.3342 111.121 57.4498 108C52.5802 99.9358 49.0324 90.4798 49 81C46.31 84.9603 47.6756 88.6414 48.8488 93C51.2234 101.822 55.5663 108.715 59 117L40 117C40.2358 124.94 45.3039 131.734 53 134.235C59.2945 136.281 67.4411 135 74 135L106 135C111.092 135 117.075 135.837 122 134.351C127.267 132.762 131.627 128.556 134.512 124C135.541 122.376 137.201 119.699 135.342 118.028C131.903 114.936 120.449 117 116 117C119.803 106.613 126.046 105.568 135 101C131.007 99.7879 126.92 101.952 123 103C123.946 98.5898 125.761 94.4425 126.561 90C127.209 86.4003 127.132 82.1062 130.279 79.6034C135.15 75.7281 144.469 79.5877 144.547 86.0039C144.596 90.0229 140.994 93.7655 139 97C146.273 94.9345 150.954 82.5666 142.891 78.0278C139.104 75.8957 132.734 78.8079 129.693 75.3966C127.025 72.4045 130.978 66.7182 126.682 64.6034C121.129 61.8695 110.134 64 104 64L49 64z"/>
<path style="fill:#7b7fa2; stroke:none;" d="M128 64L129 65L128 64z"/>
<path style="fill:#c2cac7; stroke:none;" d="M44 65L44 73C45.1614 70.2301 45.1614 67.7699 44 65z"/>
<path style="fill:#797ea1; stroke:none;" d="M45 65L45 71C45.9511 68.7147 45.9511 67.2853 45 65z"/>
<path style="fill:#272877; stroke:none;" d="M46 65L46 80C47.7404 75.8523 47.7404 69.1477 46 65z"/>
<path style="fill:#62558b; stroke:none;" d="M49 65C55.6777 67.8021 65.7844 66 73 66L126 66C119.322 63.1979 109.216 65 102 65L49 65z"/>
<path style="fill:#7c81a3; stroke:none;" d="M129 65L129 76C130.431 72.59 130.431 68.41 129 65z"/>
<path style="fill:#817097; stroke:none;" d="M48 66L48 70C48.7102 68.2405 48.7102 67.7595 48 66z"/>
<path style="fill:#e7c5be; stroke:none;" d="M49 66L49 73C49.8742 70.9479 49.9528 69.2528 50 67L125 67L125 73C125.985 70.6685 125.981 68.5434 126 66L49 66z"/>
<path style="fill:#f8d3c5; stroke:none;" d="M50 67C50 80.8722 49.6711 100.967 60.3796 111.656C65.8968 117.163 76.8648 115 84 115L103 115C105.866 114.999 109.288 115.418 111.895 113.972C115.729 111.846 117.337 106.731 119.104 103C124.232 92.1728 124.992 78.8651 125 67L50 67z"/>
<path style="fill:#ba9fad; stroke:none;" d="M52 71C61.2248 68.8038 71.5546 70 81 70C75.0569 67.5062 66.4127 68.9876 60 69C56.8945 69.006 54.1029 68.5934 52 71M85 69C90.2224 71.1914 97.3678 70 103 70C97.7776 67.8086 90.6322 69 85 69M108 71C112.017 70.0435 115.887 70.0005 120 70C116.479 68.5223 110.661 67.9553 108 71z"/>
<path style="fill:#61558c; stroke:none;" d="M48 70L48 76C48.9511 73.7147 48.9511 72.2853 48 70z"/>
<path style="fill:#302c79; stroke:none;" d="M53 70C56.4324 71.4403 60.2998 71 64 71C60.5676 69.5597 56.7002 70 53 70z"/>
<path style="fill:#564c87; stroke:none;" d="M64 70C66.3316 70.9845 68.4566 70.9813 71 71C68.6685 70.0155 66.5433 70.0187 64 70z"/>
<path style="fill:#302c79; stroke:none;" d="M71 70C74.1633 71.3274 77.5856 70.9996 81 71C77.8367 69.6726 74.4144 70.0004 71 70z"/>
<path style="fill:#a18ba4; stroke:none;" d="M81 70L82 71L81 70z"/>
<path style="fill:#302c79; stroke:none;" d="M85 70C87.0521 70.8742 88.7472 70.9528 91 71C88.9479 70.1258 87.2528 70.0472 85 70z"/>
<path style="fill:#564c87; stroke:none;" d="M91 70C92.769 70.7789 94.0359 70.9124 96 71C94.231 70.2211 92.964 70.0876 91 70z"/>
<path style="fill:#302c79; stroke:none;" d="M96 70C98.0521 70.8742 99.7472 70.9528 102 71C99.9479 70.1258 98.2528 70.0472 96 70z"/>
<path style="fill:#6f6191; stroke:none;" d="M102 70L103 71L102 70z"/>
<path style="fill:#302c79; stroke:none;" d="M109 70C110.248 70.6848 110.548 70.7488 112 71C110.752 70.3152 110.452 70.2512 109 70z"/>
<path style="fill:#564c87; stroke:none;" d="M112 70C113.506 70.683 114.315 70.8259 116 71C114.494 70.317 113.685 70.1741 112 70z"/>
<path style="fill:#302c79; stroke:none;" d="M116 70C117.506 70.683 118.315 70.8259 120 71C118.494 70.317 117.685 70.1741 116 70z"/>
<path style="fill:#bb9fae; stroke:none;" d="M120 70L121 71L120 70z"/>
<path style="fill:#999eb2; stroke:none;" d="M45 71L45 76C45.8299 73.9695 45.8299 73.0305 45 71z"/>
<path style="fill:#e1c0bc; stroke:none;" d="M52 71C59.8884 74.3101 72.4492 72 81 72C73.1116 68.6899 60.5508 71 52 71z"/>
<path style="fill:#e6c4be; stroke:none;" d="M85 71C90.2224 73.1914 97.3678 72 103 72C97.7776 69.8086 90.6322 71 85 71z"/>
<path style="fill:#e1c0bc; stroke:none;" d="M109 71C112.432 72.4403 116.3 72 120 72C116.568 70.5597 112.7 71 109 71z"/>
<path style="fill:#464987; stroke:none;" d="M128 72L128 76C128.71 74.2405 128.71 73.7595 128 72z"/>
<path style="fill:#ac94a8; stroke:none;" d="M49 73L49 81C50.1614 78.2301 50.1614 75.7699 49 73z"/>
<path style="fill:#ccaeb4; stroke:none;" d="M117.667 73.3333C117.222 73.7778 118.278 73.7222 118.333 73.6667C118.778 73.2222 117.722 73.2778 117.667 73.3333z"/>
<path style="fill:#b79dad; stroke:none;" d="M125 73L125 78C125.83 75.9695 125.83 75.0305 125 73z"/>
<path style="fill:#e4c2bd; stroke:none;" d="M115 74L115 83C116.256 80.0059 116.256 76.9941 115 74z"/>
<path style="fill:#8a789b; stroke:none;" d="M116 77C117.3 76.3501 117 76.8532 117 75L118 79C118.779 77.231 118.912 75.9641 119 74C116.636 74.4824 116.482 74.636 116 77z"/>
<path style="fill:#c3cbc8; stroke:none;" d="M130 75C132.393 75.7408 134.493 75.3021 137 75C134.477 74.0098 132.642 74.3831 130 75z"/>
<path style="fill:#332f7a; stroke:none;" d="M117 75L117 79C117.71 77.2405 117.71 76.7595 117 75z"/>
<path style="fill:#8085a5; stroke:none;" d="M133 75C134.506 75.683 135.315 75.8259 137 76C135.494 75.317 134.685 75.1741 133 75z"/>
<path style="fill:#bfc6c5; stroke:none;" d="M137 75C138.506 75.683 139.315 75.8259 141 76C139.494 75.317 138.685 75.1741 137 75z"/>
<path style="fill:#ccd4cc; stroke:none;" d="M45 76L45 84C46.1614 81.2301 46.1614 78.7699 45 76z"/>
<path style="fill:#484082; stroke:none;" d="M48 76L48 81C48.8299 78.9695 48.8299 78.0305 48 76z"/>
<path style="fill:#e0bfbc; stroke:none;" d="M124 76L124 84C125.161 81.2301 125.161 78.7699 124 76z"/>
<path style="fill:#4c4f8a; stroke:none;" d="M129.667 76.3333C129.222 76.7777 130.278 76.7223 130.333 76.6667C130.778 76.2222 129.722 76.2778 129.667 76.3333z"/>
<path style="fill:#292a78; stroke:none;" d="M131 76C134.163 77.3274 137.586 76.9996 141 77C137.837 75.6726 134.414 76.0004 131 76z"/>
<path style="fill:#626596; stroke:none;" d="M141 76L142 77L141 76z"/>
<path style="fill:#494182; stroke:none;" d="M116 77L116 83L118 83C117.745 80.511 117.416 79.0415 116 77z"/>
<path style="fill:#7f83a5; stroke:none;" d="M143 77L144 78L143 77z"/>
<path style="fill:#f5f7f2; stroke:none;" d="M8 78L8 95C9.8826 90.5135 9.8826 82.4865 8 78z"/>
<path style="fill:#88759a; stroke:none;" d="M125 78L125 83C125.83 80.9695 125.83 80.0305 125 78z"/>
<path style="fill:#4a4d89; stroke:none;" d="M130.667 78.3333C130.222 78.7777 131.278 78.7222 131.333 78.6667C131.778 78.2222 130.722 78.2778 130.667 78.3333z"/>
<path style="fill:#6c709b; stroke:none;" d="M132 78C134.613 79.0977 137.165 78.9928 140 79C137.387 77.9023 134.835 78.0072 132 78z"/>
<path style="fill:#787da1; stroke:none;" d="M144 78L145 79L144 78z"/>
<path style="fill:#f5f7f2; stroke:none;" d="M168 78L167 103C169.721 96.692 170.68 84.3867 168 78z"/>
<path style="fill:#ae95a8; stroke:none;" d="M118 79L118 82C118.696 80.4463 118.696 80.5537 118 79z"/>
<path style="fill:#8287a6; stroke:none;" d="M129 79C130.248 79.6848 130.548 79.7488 132 80C130.752 79.3152 130.452 79.2512 129 79z"/>
<path style="fill:#dde6d5; stroke:none;" d="M129 80C128.935 87.9084 126.418 94.5806 124 102C129.914 100.522 137.508 97.6506 141.258 92.5602C143.703 89.2405 144.255 81.726 139.852 79.7423C136.542 78.2512 132.381 79.3723 129 80z"/>
<path style="fill:#878ba8; stroke:none;" d="M140 79L141 80L140 79z"/>
<path style="fill:#8f94ac; stroke:none;" d="M145 79L146 80L145 79z"/>
<path style="fill:#434586; stroke:none;" d="M46 80L46 83C46.6961 81.4463 46.6961 81.5537 46 80z"/>
<path style="fill:#8185a5; stroke:none;" d="M128 80L128 83C128.696 81.4463 128.696 81.5537 128 80z"/>
<path style="fill:#5d6193; stroke:none;" d="M142 80L143 81L142 80z"/>
<path style="fill:#88759a; stroke:none;" d="M49 81L49 84C49.6961 82.4463 49.6961 82.5537 49 81z"/>
<path style="fill:#52548d; stroke:none;" d="M143 81L144 82L143 81z"/>
<path style="fill:#8287a6; stroke:none;" d="M146 81L147 82L146 81z"/>
<path style="fill:#b5bcc0; stroke:none;" d="M147 81L147 84C147.696 82.4463 147.696 82.5537 147 81z"/>
<path style="fill:#a4abb8; stroke:none;" d="M143.333 82.6667C143.278 82.7223 143.222 83.7777 143.667 83.3333C143.722 83.2778 143.778 82.2222 143.333 82.6667z"/>
<path style="fill:#70749d; stroke:none;" d="M46.3333 83.6667C46.2778 83.7222 46.2222 84.7778 46.6667 84.3333C46.7222 84.2778 46.7778 83.2222 46.3333 83.6667z"/>
<path style="fill:#cfb0b5; stroke:none;" d="M116.667 83.3333C116.222 83.7778 117.278 83.7222 117.333 83.6667C117.778 83.2222 116.722 83.2778 116.667 83.3333z"/>
<path style="fill:#474081; stroke:none;" d="M125.333 83.6667C125.278 83.7222 125.222 84.7778 125.667 84.3333C125.722 84.2778 125.778 83.2222 125.333 83.6667z"/>
<path style="fill:#4d4f8b; stroke:none;" d="M127 83L127 86C127.696 84.4463 127.696 84.5537 127 83z"/>
<path style="fill:#b9c0c3; stroke:none;" d="M128 83L128 88C128.83 85.9695 128.83 85.0305 128 83z"/>
<path style="fill:#7f84a5; stroke:none;" d="M144 83L144 89C144.951 86.7148 144.951 85.2853 144 83z"/>
<path style="fill:#3b367d; stroke:none;" d="M49 84L49 90C49.9511 87.7147 49.9511 86.2853 49 84z"/>
<path style="fill:#ba9fad; stroke:none;" d="M124 84L124 87C124.696 85.4463 124.696 85.5537 124 84z"/>
<path style="fill:#c4ccc8; stroke:none;" d="M143 84L143 89C143.83 86.9695 143.83 86.0305 143 84z"/>
<path style="fill:#8186a6; stroke:none;" d="M147 84L147 87C147.696 85.4463 147.696 85.5537 147 84z"/>
<path style="fill:#9fa6b5; stroke:none;" d="M46 85L46 88C46.6961 86.4463 46.6961 86.5537 46 85z"/>
<path style="fill:#b299aa; stroke:none;" d="M50.3333 86.6667C50.2778 86.7222 50.2222 87.7778 50.6667 87.3333C50.7222 87.2778 50.7778 86.2222 50.3333 86.6667z"/>
<path style="fill:#bfa4af; stroke:none;" d="M114 86L114 89C114.696 87.4463 114.696 87.5537 114 86z"/>
<path style="fill:#232274; stroke:none;" d="M115 86L115 92C116.225 89.9868 116.645 88.3415 117 86L115 86z"/>
<path style="fill:#bda2af; stroke:none;" d="M117 86L117 89C117.696 87.4463 117.696 87.5537 117 86z"/>
<path style="fill:#8186a6; stroke:none;" d="M127.333 86.6667C127.278 86.7222 127.222 87.7778 127.667 87.3333C127.722 87.2778 127.778 86.2222 127.333 86.6667z"/>
<path style="fill:#d4b5b7; stroke:none;" d="M123 87L123 90C123.696 88.4463 123.696 88.5537 123 87z"/>
<path style="fill:#827198; stroke:none;" d="M124 87L124 90C124.696 88.4463 124.696 88.5537 124 87z"/>
<path style="fill:#b9c0c2; stroke:none;" d="M147 87L147 92C147.83 89.9695 147.83 89.0305 147 87z"/>
<path style="fill:#5b5e92; stroke:none;" d="M47 88L47 91C47.6961 89.4463 47.6961 89.5537 47 88z"/>
<path style="fill:#7a6a95; stroke:none;" d="M50 88L50 91C50.6961 89.4463 50.6961 89.5537 50 88z"/>
<path style="fill:#b3bac0; stroke:none;" d="M127 88L127 93C127.83 90.9695 127.83 90.0305 127 88z"/>
<path style="fill:#e4c2be; stroke:none;" d="M113 89L113 94L117 93L113 89z"/>
<path style="fill:#7b6b95; stroke:none;" d="M114 89L114 92C114.696 90.4463 114.696 90.5537 114 89z"/>
<path style="fill:#95809f; stroke:none;" d="M116 89L116 92C116.696 90.4463 116.696 90.5537 116 89z"/>
<path style="fill:#858aa8; stroke:none;" d="M143.333 89.6667C143.278 89.7223 143.222 90.7777 143.667 90.3333C143.722 90.2778 143.778 89.2222 143.333 89.6667z"/>
<path style="fill:#5d6194; stroke:none;" d="M146 89L146 92C146.696 90.4463 146.696 90.5537 146 89z"/>
<path style="fill:#e2c1bd; stroke:none;" d="M51 90L52 97C53.0777 94.2268 52.6631 92.4353 51 90z"/>
<path style="fill:#96819f; stroke:none;" d="M123.333 90.6667C123.278 90.7222 123.222 91.7778 123.667 91.3333C123.722 91.2778 123.778 90.2222 123.333 90.6667z"/>
<path style="fill:#4d4f8b; stroke:none;" d="M126 90L126 93C126.696 91.4463 126.696 91.5537 126 90z"/>
<path style="fill:#f5d174; stroke:none;" d="M18.3179 91.7469C13.1637 94.2522 17.1188 102.734 22.7724 100.381C28.8156 97.8659 24.3167 88.8312 18.3179 91.7469z"/>
<path style="fill:#a5acb9; stroke:none;" d="M47.3333 91.6667C47.2778 91.7222 47.2222 92.7778 47.6667 92.3333C47.7223 92.2777 47.7778 91.2222 47.3333 91.6667z"/>
<path style="fill:#53568e; stroke:none;" d="M48 91L48 94C48.6961 92.4463 48.6961 92.5537 48 91z"/>
<path style="fill:#a2a9b7; stroke:none;" d="M142 91L143 92L142 91z"/>
<path style="fill:#62568c; stroke:none;" d="M123.333 92.6667C123.278 92.7222 123.222 93.7778 123.667 93.3333C123.722 93.2778 123.778 92.2222 123.333 92.6667z"/>
<path style="fill:#7b6a95; stroke:none;" d="M51.3333 93.6667C51.2778 93.7222 51.2222 94.7778 51.6667 94.3333C51.7222 94.2778 51.7778 93.2222 51.3333 93.6667z"/>
<path style="fill:#a28ca4; stroke:none;" d="M122 93L122 96C122.696 94.4463 122.696 94.5537 122 93z"/>
<path style="fill:#b3babf; stroke:none;" d="M126.333 93.6667C126.278 93.7222 126.222 94.7778 126.667 94.3333C126.722 94.2778 126.778 93.2222 126.333 93.6667z"/>
<path style="fill:#acb2bc; stroke:none;" d="M140 93L141 94L140 93z"/>
<path style="fill:#616495; stroke:none;" d="M141 93L142 94L141 93z"/>
<path style="fill:#949ab0; stroke:none;" d="M145 93L146 94L145 93z"/>
<path style="fill:#969cb0; stroke:none;" d="M48.3333 94.6667C48.2778 94.7222 48.2222 95.7778 48.6667 95.3333C48.7222 95.2778 48.7778 94.2222 48.3333 94.6667z"/>
<path style="fill:#a991a7; stroke:none;" d="M113.667 94.3333C113.222 94.7778 114.278 94.7222 114.333 94.6667C114.778 94.2222 113.722 94.2778 113.667 94.3333z"/>
<path style="fill:#a8aeba; stroke:none;" d="M139 94L140 95L139 94z"/>
<path style="fill:#626696; stroke:none;" d="M140 94L141 95L140 94z"/>
<path style="fill:#8388a7; stroke:none;" d="M144 94L145 95L144 94z"/>
<path style="fill:#595c91; stroke:none;" d="M49 95L49 98C49.6961 96.4463 49.6961 96.5537 49 95z"/>
<path style="fill:#8b789c; stroke:none;" d="M112.333 95.6667C112.278 95.7222 112.222 96.7778 112.667 96.3333C112.722 96.2778 112.778 95.2222 112.333 95.6667z"/>
<path style="fill:#3c377e; stroke:none;" d="M113 95C110.683 100.64 107.086 105.98 106 112C110.715 107.643 113.256 101.1 115 95L113 95z"/>
<path style="fill:#686c98; stroke:none;" d="M125 95L125 98C125.696 96.4463 125.696 96.5537 125 95z"/>
<path style="fill:#a6adb9; stroke:none;" d="M138 95L139 96L138 95z"/>
<path style="fill:#5d5f93; stroke:none;" d="M139 95L140 96L139 95z"/>
<path style="fill:#8d93ac; stroke:none;" d="M143 95L144 96L143 95z"/>
<path style="fill:#bbc2c3; stroke:none;" d="M48.3333 96.6667C48.2778 96.7222 48.2222 97.7778 48.6667 97.3333C48.7222 97.2778 48.7778 96.2222 48.3333 96.6667z"/>
<path style="fill:#4a4283; stroke:none;" d="M122.333 96.6667C122.278 96.7222 122.222 97.7778 122.667 97.3333C122.722 97.2778 122.778 96.2222 122.333 96.6667z"/>
<path style="fill:#383a80; stroke:none;" d="M124 96L124 99C124.696 97.4463 124.696 97.5537 124 96z"/>
<path style="fill:#9ca2b4; stroke:none;" d="M137 96L138 97L137 96z"/>
<path style="fill:#2c2d7a; stroke:none;" d="M133 99C136.016 100.6 138.015 99.436 141 98C137.984 96.3997 135.985 97.564 133 99z"/>
<path style="fill:#9ba1b3; stroke:none;" d="M142 96L143 97L142 96z"/>
<path style="fill:#62568c; stroke:none;" d="M52.3333 97.6667C52.2778 97.7222 52.2222 98.7778 52.6667 98.3333C52.7222 98.2778 52.7778 97.2222 52.3333 97.6667z"/>
<path style="fill:#c5a9b2; stroke:none;" d="M114.333 97.6667C114.278 97.7222 114.222 98.7778 114.667 98.3333C114.722 98.2778 114.778 97.2222 114.333 97.6667z"/>
<path style="fill:#9da3b4; stroke:none;" d="M135 97L136 98L135 97z"/>
<path style="fill:#b5bcc0; stroke:none;" d="M49 98L49 101C49.6961 99.4463 49.6961 99.5537 49 98z"/>
<path style="fill:#9882a0; stroke:none;" d="M53.3333 98.6667C53.2778 98.7222 53.2222 99.7778 53.6667 99.3333C53.7222 99.2778 53.7778 98.2222 53.3333 98.6667z"/>
<path style="fill:#a28ba4; stroke:none;" d="M111 98L112 99L111 98z"/>
<path style="fill:#564b87; stroke:none;" d="M121.333 98.6667C121.278 98.7222 121.222 99.7778 121.667 99.3333C121.722 99.2778 121.778 98.2222 121.333 98.6667z"/>
<path style="fill:#7e83a4; stroke:none;" d="M133.667 98.3333C133.222 98.7777 134.278 98.7223 134.333 98.6667C134.778 98.2222 133.722 98.2778 133.667 98.3333z"/>
<path style="fill:#5f6294; stroke:none;" d="M139 98L140 99L139 98z"/>
<path style="fill:#9fa5b5; stroke:none;" d="M140 98L141 99L140 98z"/>
<path style="fill:#51548d; stroke:none;" d="M50 99L51 100L50 99z"/>
<path style="fill:#b299aa; stroke:none;" d="M113.333 99.6667C113.278 99.7222 113.222 100.778 113.667 100.333C113.722 100.278 113.778 99.2222 113.333 99.6667z"/>
<path style="fill:#8d92ac; stroke:none;" d="M124.333 99.6667C124.278 99.7222 124.222 100.778 124.667 100.333C124.722 100.278 124.778 99.2222 124.333 99.6667z"/>
<path style="fill:#b4bcc0; stroke:none;" d="M130 99C131.248 99.6848 131.548 99.7488 133 100C131.752 99.3152 131.452 99.2512 130 99z"/>
<path style="fill:#6e729c; stroke:none;" d="M138 99L139 100L138 99z"/>
<path style="fill:#a9b0ba; stroke:none;" d="M139 99L140 100L139 99z"/>
<path style="fill:#8186a5; stroke:none;" d="M50 100L51 101L50 100z"/>
<path style="fill:#4b4383; stroke:none;" d="M53.3333 100.667C53.2778 100.722 53.2222 101.778 53.6667 101.333C53.7223 101.278 53.7778 100.222 53.3333 100.667z"/>
<path style="fill:#c2a5b0; stroke:none;" d="M110 100L111 101L110 100z"/>
<path style="fill:#806e97; stroke:none;" d="M120.333 100.667C120.278 100.722 120.222 101.778 120.667 101.333C120.722 101.278 120.778 100.222 120.333 100.667z"/>
<path style="fill:#55588f; stroke:none;" d="M123 100C123.482 102.364 123.636 102.518 126 103C125.027 101.73 124.27 100.972 123 100z"/>
<path style="fill:#777ba0; stroke:none;" d="M129 100C130.248 100.685 130.548 100.749 132 101C130.752 100.315 130.452 100.251 129 100z"/>
<path style="fill:#606394; stroke:none;" d="M136 100L137 101L136 100z"/>
<path style="fill:#706291; stroke:none;" d="M54.3333 101.667C54.2778 101.722 54.2222 102.778 54.6667 102.333C54.7222 102.278 54.7778 101.222 54.3333 101.667z"/>
<path style="fill:#c8abb3; stroke:none;" d="M109 101L109 104C109.696 102.446 109.696 102.554 109 101z"/>
<path style="fill:#ae95a9; stroke:none;" d="M112.333 101.667C112.278 101.722 112.222 102.778 112.667 102.333C112.722 102.278 112.778 101.222 112.333 101.667z"/>
<path style="fill:#c6a9b2; stroke:none;" d="M119 101L119 104C119.696 102.446 119.696 102.554 119 101z"/>
<path style="fill:#696c99; stroke:none;" d="M126.667 101.333C126.222 101.778 127.278 101.722 127.333 101.667C127.778 101.222 126.722 101.278 126.667 101.333z"/>
<path style="fill:#52548d; stroke:none;" d="M134 101L135 102L134 101z"/>
<path style="fill:#9196ae; stroke:none;" d="M135 101L136 102L135 101z"/>
<path style="fill:#626596; stroke:none;" d="M51 102L52 103L51 102z"/>
<path style="fill:#51538c; stroke:none;" d="M132 102L133 103L132 102z"/>
<path style="fill:#a3a9b7; stroke:none;" d="M131 103C132.809 103.574 133.069 103.465 135 103C133.341 102.594 132.758 102.691 131 103z"/>
<path style="fill:#bec5c5; stroke:none;" d="M51.3333 103.667C51.2778 103.722 51.2222 104.778 51.6667 104.333C51.7223 104.278 51.7778 103.222 51.3333 103.667z"/>
<path style="fill:#ba9fad; stroke:none;" d="M55 103L56 104L55 103z"/>
<path style="fill:#4c4f8a; stroke:none;" d="M128 103C129.248 103.685 129.548 103.749 131 104C129.752 103.315 129.452 103.251 128 103z"/>
<path style="fill:#7b6b95; stroke:none;" d="M55 104L56 105L55 104z"/>
<path style="fill:#b097aa; stroke:none;" d="M108 104L109 105L108 104z"/>
<path style="fill:#9a84a1; stroke:none;" d="M111 104L112 105L111 104z"/>
<path style="fill:#917d9e; stroke:none;" d="M118.333 104.667C118.278 104.722 118.222 105.778 118.667 105.333C118.722 105.278 118.778 104.222 118.333 104.667z"/>
<path style="fill:#797da1; stroke:none;" d="M127 104C128.248 104.685 128.548 104.749 130 105C128.752 104.315 128.452 104.251 127 104z"/>
<path style="fill:#b5bcc0; stroke:none;" d="M52.3333 105.667C52.2778 105.722 52.2222 106.778 52.6667 106.333C52.7222 106.278 52.7778 105.222 52.3333 105.667z"/>
<path style="fill:#5f6294; stroke:none;" d="M122 105C123.506 105.683 124.315 105.826 126 106C124.494 105.317 123.685 105.174 122 105z"/>
<path style="fill:#5e6194; stroke:none;" d="M53 106L54 107L53 106z"/>
<path style="fill:#867399; stroke:none;" d="M56 106L57 107L56 106z"/>
<path style="fill:#9f89a3; stroke:none;" d="M107 106L108 107L107 106z"/>
<path style="fill:#9d87a2; stroke:none;" d="M110 106L111 107L110 106z"/>
<path style="fill:#b89ead; stroke:none;" d="M117 106L118 107L117 106z"/>
<path style="fill:#71759d; stroke:none;" d="M121 106L122 107L121 106z"/>
<path style="fill:#b6bec1; stroke:none;" d="M53.3333 107.667C53.2778 107.722 53.2222 108.778 53.6667 108.333C53.7222 108.278 53.7778 107.222 53.3333 107.667z"/>
<path style="fill:#8a779b; stroke:none;" d="M57.3333 107.667C57.2778 107.722 57.2222 108.778 57.6667 108.333C57.7222 108.278 57.7778 107.222 57.3333 107.667z"/>
<path style="fill:#544a86; stroke:none;" d="M117.333 107.667C117.278 107.722 117.222 108.778 117.667 108.333C117.722 108.278 117.778 107.222 117.333 107.667z"/>
<path style="fill:#efd892; stroke:none;" d="M6 113C9.38211 110.872 11.9668 109.301 16 109C11.5251 107.145 8.11072 108.815 6 113z"/>
<path style="fill:#9ba0b3; stroke:none;" d="M54.3333 108.667C54.2778 108.722 54.2222 109.778 54.6667 109.333C54.7222 109.278 54.7778 108.222 54.3333 108.667z"/>
<path style="fill:#8c799c; stroke:none;" d="M106 108L107 109L106 108z"/>
<path style="fill:#bfa4af; stroke:none;" d="M116 108L117 109L116 108z"/>
<path style="fill:#7c80a3; stroke:none;" d="M120 108L121 109L120 108z"/>
<path style="fill:#f5d174; stroke:none;" d="M10.0193 109.988C-0.181751 114.836 9.31636 127.872 17.8665 122.972C26.7496 117.882 19.0122 105.715 10.0193 109.988z"/>
<path style="fill:#a891a7; stroke:none;" d="M58 109L59 110L58 109z"/>
<path style="fill:#817098; stroke:none;" d="M108 109L109 110L108 109z"/>
<path style="fill:#796994; stroke:none;" d="M116 109L117 110L116 109z"/>
<path style="fill:#54578e; stroke:none;" d="M119 109L120 110L119 109z"/>
<path style="fill:#73779e; stroke:none;" d="M55 110L56 111L55 110z"/>
<path style="fill:#c8aab2; stroke:none;" d="M104.333 110.667C104.278 110.722 104.222 111.778 104.667 111.333C104.722 111.278 104.778 110.222 104.333 110.667z"/>
<path style="fill:#514785; stroke:none;" d="M105.333 110.667C105.278 110.722 105.222 111.778 105.667 111.333C105.722 111.278 105.778 110.222 105.333 110.667z"/>
<path style="fill:#af96a9; stroke:none;" d="M115 110L116 111L115 110z"/>
<path style="fill:#878da9; stroke:none;" d="M119 110L120 111L119 110z"/>
<path style="fill:#7d6c96; stroke:none;" d="M59 111L60 112L59 111z"/>
<path style="fill:#9f89a3; stroke:none;" d="M107 111L108 112L107 111z"/>
<path style="fill:#616495; stroke:none;" d="M118 111L119 112L118 111z"/>
<path style="fill:#eef3ea; stroke:none;" d="M164 111C163.12 113.326 162.507 115.564 162 118C163.981 115.723 164.866 113.952 164 111z"/>
<path style="fill:#fdf3dc; stroke:none;" d="M4 112L4 119C5.00945 116.767 5.40524 114.396 6 112L4 112z"/>
<path style="fill:#888daa; stroke:none;" d="M56 112L57 113L56 112z"/>
<path style="fill:#9681a0; stroke:none;" d="M60 112L61 113L60 112z"/>
<path style="fill:#a18ba4; stroke:none;" d="M105.667 112.333C105.222 112.778 106.278 112.722 106.333 112.667C106.778 112.222 105.722 112.278 105.667 112.333z"/>
<path style="fill:#847299; stroke:none;" d="M114 112L115 113L114 112z"/>
<path style="fill:#6e729c; stroke:none;" d="M57 113L58 114L57 113z"/>
<path style="fill:#e7c5be; stroke:none;" d="M61 113C64.9765 117.061 70.649 116 76 116L112 116C107.531 114.125 101.809 115 97 115C85.1687 115 72.3659 116.547 61 113z"/>
<path style="fill:#95809f; stroke:none;" d="M113 113L114 114L113 113z"/>
<path style="fill:#8b90ab; stroke:none;" d="M117 113L118 114L117 113z"/>
<path style="fill:#ced6cd; stroke:none;" d="M57 114C51.854 115.521 46.3395 115 41 115C44.2041 116.846 49.243 116.044 53 116C54.9977 115.977 57.9532 116.309 57 114z"/>
<path style="fill:#646897; stroke:none;" d="M58 114L59 115L58 114z"/>
<path style="fill:#5d528a; stroke:none;" d="M61 114L62 115L61 114z"/>
<path style="fill:#b39aaa; stroke:none;" d="M112 114L113 115L112 114z"/>
<path style="fill:#6d719b; stroke:none;" d="M116 114L117 115L116 114z"/>
<path style="fill:#ced6cd; stroke:none;" d="M116 115C121.469 117.295 129.099 116 135 116C129.897 113.859 121.483 114.397 116 115z"/>
<path style="fill:#949aaf; stroke:none;" d="M58 115L59 116L58 115z"/>
<path style="fill:#736493; stroke:none;" d="M62 115L63 116L62 115z"/>
<path style="fill:#706190; stroke:none;" d="M112 115L113 116L112 115z"/>
<path style="fill:#a1a7b7; stroke:none;" d="M40 116L41 117L40 116z"/>
<path style="fill:#595c91; stroke:none;" d="M41 116C46.2224 118.191 53.3678 117 59 117C53.7776 114.809 46.6322 116 41 116z"/>
<path style="fill:#62558b; stroke:none;" d="M63 116C67.7199 117.981 73.9198 117 79 117L111 117C106.28 115.019 100.08 116 95 116L63 116z"/>
<path style="fill:#595c91; stroke:none;" d="M116 116C121.469 118.295 129.099 117 135 117C129.531 114.705 121.901 116 116 116z"/>
<path style="fill:#a2a8b6; stroke:none;" d="M135 116L136 117L135 116z"/>
<path style="fill:#a2a8b7; stroke:none;" d="M38 117L38 121C38.9114 119.623 39.4038 118.56 40 117L38 117z"/>
<path style="fill:#7c81a3; stroke:none;" d="M136 117L137 118L136 117z"/>
<path style="fill:#aeb5bd; stroke:none;" d="M137 117L136 123C137.654 120.823 137.994 119.575 137 117z"/>
<path style="fill:#f9e6b4; stroke:none;" d="M5 118L5 121C5.6961 119.446 5.6961 119.554 5 118z"/>
<path style="fill:#454787; stroke:none;" d="M39 118L39 121C39.6961 119.446 39.6961 119.554 39 118z"/>
<path style="fill:#35307a; stroke:none;" d="M41 121C48.5733 116.788 60.5272 119 69 119L134 119C129.006 116.123 118.853 118 113 118L62 118C57.1428 118 42.1751 115.516 41 121z"/>
<path style="fill:#837298; stroke:none;" d="M42 122C48.3013 118.496 56.9828 120 64 120L111 120C117.423 120 127.726 118.004 133 122C135.423 117.361 120.091 119 117 119L62 119C57.2357 119 43.1629 116.573 42 122z"/>
<path style="fill:#f8d3c5; stroke:none;" d="M43 120C45.3496 125.338 49.2031 129.709 55 131.451C61.2668 133.333 69.4948 132 76 132L106 132C110.791 132 116.345 132.743 121 131.428C126.575 129.853 130.515 124.948 133 120L43 120z"/>
<path style="fill:#f7dd97; stroke:none;" d="M6 121C8.65449 124.188 10.8998 124.868 15 125L6 121z"/>
<path style="fill:#a7adb9; stroke:none;" d="M39.3333 121.667C39.2778 121.722 39.2222 122.778 39.6667 122.333C39.7222 122.278 39.7778 121.222 39.3333 121.667z"/>
<path style="fill:#bca1ae; stroke:none;" d="M43 121L44 122L43 121z"/>
<path style="fill:#b299aa; stroke:none;" d="M132 121L133 122L132 121z"/>
<path style="fill:#7c6b96; stroke:none;" d="M43 122L44 123L43 122z"/>
<path style="fill:#5b5e92; stroke:none;" d="M135 122L136 123L135 122z"/>
<path style="fill:#edd893; stroke:none;" d="M24 126L27 124C24.8603 122.882 24.4732 123.749 24 126z"/>
<path style="fill:#898eaa; stroke:none;" d="M40 123L41 124L40 123z"/>
<path style="fill:#95819f; stroke:none;" d="M44 123L45 124L44 123z"/>
<path style="fill:#a58ea5; stroke:none;" d="M50.3333 123.667C50.2778 123.722 50.2222 124.778 50.6667 124.333C50.7222 124.278 50.7778 123.222 50.3333 123.667z"/>
<path style="fill:#837198; stroke:none;" d="M51 123C56.4692 125.295 64.0987 124 70 124C64.5308 121.705 56.9013 123 51 123z"/>
<path style="fill:#9883a0; stroke:none;" d="M70 123C74.4714 124.876 80.1834 124 85 124C80.5286 122.124 74.8166 123 70 123z"/>
<path style="fill:#837198; stroke:none;" d="M85 123C91.0128 125.523 98.5601 123.467 105 125C101.387 120.865 90.2494 123 85 123z"/>
<path style="fill:#cdafb5; stroke:none;" d="M105.333 123.667C105.278 123.722 105.222 124.778 105.667 124.333C105.722 124.278 105.778 123.222 105.333 123.667z"/>
<path style="fill:#ba9fad; stroke:none;" d="M110.333 123.667C110.278 123.722 110.222 124.778 110.667 124.333C110.722 124.278 110.778 123.222 110.333 123.667z"/>
<path style="fill:#837198; stroke:none;" d="M111 123C112.769 123.779 114.036 123.912 116 124C114.231 123.221 112.964 123.088 111 123z"/>
<path style="fill:#9883a0; stroke:none;" d="M116 123C117.769 123.779 119.036 123.912 121 124C119.231 123.221 117.964 123.088 116 123z"/>
<path style="fill:#837198; stroke:none;" d="M121 123C122.769 123.779 124.036 123.912 126 124C124.231 123.221 122.964 123.088 121 123z"/>
<path style="fill:#a58ea5; stroke:none;" d="M126.333 123.667C126.278 123.722 126.222 124.778 126.667 124.333C126.722 124.278 126.778 123.222 126.333 123.667z"/>
<path style="fill:#776894; stroke:none;" d="M131 123L132 124L131 123z"/>
<path style="fill:#9ea4b4; stroke:none;" d="M135 123L136 124L135 123z"/>
<path style="fill:#f5d176; stroke:none;" d="M25 127C27.1236 126.101 27.1007 126.124 28 124C25.636 124.482 25.4825 124.636 25 127z"/>
<path style="fill:#595c91; stroke:none;" d="M41 124L42 125L41 124z"/>
<path style="fill:#5c5189; stroke:none;" d="M51 124C56.4692 126.295 64.0987 125 70 125C64.5308 122.705 56.9013 124 51 124z"/>
<path style="fill:#7a6a95; stroke:none;" d="M70 124C74.4714 125.876 80.1834 125 85 125C80.5286 123.124 74.8166 124 70 124z"/>
<path style="fill:#5c5189; stroke:none;" d="M85 124C90.4692 126.295 98.0987 125 104 125C98.5308 122.705 90.9012 124 85 124M111 124C112.769 124.779 114.036 124.912 116 125C114.231 124.221 112.964 124.088 111 124z"/>
<path style="fill:#7a6a95; stroke:none;" d="M116 124C117.769 124.779 119.036 124.912 121 125C119.231 124.221 117.964 124.088 116 124z"/>
<path style="fill:#5c5189; stroke:none;" d="M121 124C122.769 124.779 124.036 124.912 126 125C124.231 124.221 122.964 124.088 121 124z"/>
<path style="fill:#b39aab; stroke:none;" d="M130 124L131 125L130 124z"/>
<path style="fill:#7a7ea2; stroke:none;" d="M134 124L135 125L134 124z"/>
<path style="fill:#9ea4b5; stroke:none;" d="M41 125L42 126L41 125z"/>
<path style="fill:#6c5f90; stroke:none;" d="M45 125L46 126L45 125z"/>
<path style="fill:#ba9fad; stroke:none;" d="M129 125L130 126L129 125z"/>
<path style="fill:#636696; stroke:none;" d="M133 125L134 126L133 125z"/>
<path style="fill:#7a7fa2; stroke:none;" d="M42 126L43 127L42 126z"/>
<path style="fill:#8c799c; stroke:none;" d="M46 126L47 127L46 126z"/>
<path style="fill:#716291; stroke:none;" d="M129 126L130 127L129 126z"/>
<path style="fill:#51548d; stroke:none;" d="M132 126L133 127L132 126z"/>
<path style="fill:#c1c9c7; stroke:none;" d="M133 126C132.014 127.479 132 127.203 132 129C133.289 127.557 133.401 127.766 133 126z"/>
<path style="fill:#606395; stroke:none;" d="M43 127L44 128L43 127z"/>
<path style="fill:#94809f; stroke:none;" d="M47 127L48 128L47 127z"/>
<path style="fill:#bca2ae; stroke:none;" d="M127 127L128 128L127 127z"/>
<path style="fill:#6f6191; stroke:none;" d="M128 127L129 128L128 127z"/>
<path style="fill:#989eb1; stroke:none;" d="M43 128L44 129L43 128z"/>
<path style="fill:#4f528c; stroke:none;" d="M44 128L45 129L44 128z"/>
<path style="fill:#927e9e; stroke:none;" d="M48 128L49 129L48 128z"/>
<path style="fill:#ae95a9; stroke:none;" d="M126 128L127 129L126 128z"/>
<path style="fill:#7c80a3; stroke:none;" d="M131 128L132 129L131 128z"/>
<path style="fill:#969bb0; stroke:none;" d="M44 129L45 130L44 129z"/>
<path style="fill:#8b799c; stroke:none;" d="M49 129L50 130L49 129z"/>
<path style="fill:#dbbaba; stroke:none;" d="M50 129C51.2228 130.195 51.42 130.316 53 131C51.7772 129.805 51.58 129.684 50 129z"/>
<path style="fill:#9a85a1; stroke:none;" d="M125 129L126 130L125 129z"/>
<path style="fill:#777ba0; stroke:none;" d="M130 129L131 130L130 129z"/>
<path style="fill:#62558c; stroke:none;" d="M50 130L51 131L50 130z"/>
<path style="fill:#806f97; stroke:none;" d="M124 130L125 131L124 130z"/>
<path style="fill:#8488a7; stroke:none;" d="M129 130L130 131L129 130z"/>
<path style="fill:#71759e; stroke:none;" d="M47 131L48 132L47 131z"/>
<path style="fill:#60548b; stroke:none;" d="M52 131L53 132L52 131z"/>
<path style="fill:#9b85a1; stroke:none;" d="M53 131L54 132L53 131z"/>
<path style="fill:#c2a6b1; stroke:none;" d="M121 131L122 132L121 131z"/>
<path style="fill:#847299; stroke:none;" d="M122 131L123 132L122 131z"/>
<path style="fill:#52558d; stroke:none;" d="M127 131L128 132L127 131z"/>
<path style="fill:#9da3b4; stroke:none;" d="M128 131L129 132L128 131z"/>
<path style="fill:#eef3eb; stroke:none;" d="M22 132C22.6836 133.58 22.8048 133.777 24 135C23.3164 133.42 23.1952 133.223 22 132z"/>
<path style="fill:#8c91ab; stroke:none;" d="M48 132L49 133L48 132z"/>
<path style="fill:#6f6191; stroke:none;" d="M54 132C55.2484 132.685 55.5484 132.749 57 133C55.7516 132.315 55.4516 132.251 54 132z"/>
<path style="fill:#aa92a7; stroke:none;" d="M57 132C62.7073 134.395 70.846 133 77 133L118 133C112.293 130.605 104.154 132 98 132L57 132z"/>
<path style="fill:#7f6e97; stroke:none;" d="M118 132C119.248 132.685 119.548 132.749 121 133C119.752 132.315 119.452 132.251 118 132z"/>
<path style="fill:#6d719b; stroke:none;" d="M126 132L127 133L126 132z"/>
<path style="fill:#9ba0b3; stroke:none;" d="M49 133L50 134L49 133z"/>
<path style="fill:#4c4e8a; stroke:none;" d="M50.6667 133.333C50.2222 133.778 51.2778 133.722 51.3333 133.667C51.7778 133.222 50.7222 133.278 50.6667 133.333z"/>
<path style="fill:#514785; stroke:none;" d="M58 133C63.4625 135.292 71.113 134 77 134L118 134C112.538 131.708 104.887 133 99 133L58 133z"/>
<path style="fill:#868aa8; stroke:none;" d="M124.667 133.333C124.222 133.778 125.278 133.722 125.333 133.667C125.778 133.222 124.722 133.278 124.667 133.333z"/>
<path style="fill:#74789f; stroke:none;" d="M51.6667 134.333C51.2222 134.778 52.2778 134.722 52.3333 134.667C52.7778 134.222 51.7222 134.278 51.6667 134.333z"/>
<path style="fill:#8a90aa; stroke:none;" d="M122.667 134.333C122.222 134.778 123.278 134.722 123.333 134.667C123.778 134.222 122.722 134.278 122.667 134.333z"/>
<path style="fill:#9298ae; stroke:none;" d="M54 135C55.2483 135.685 55.5484 135.749 57 136C55.7516 135.315 55.4516 135.251 54 135z"/>
<path style="fill:#595c91; stroke:none;" d="M57 135C62.7073 137.395 70.846 136 77 136L119 136C113.293 133.605 105.154 135 99 135L57 135z"/>
<path style="fill:#999fb2; stroke:none;" d="M119 135C120.248 135.685 120.548 135.749 122 136C120.752 135.315 120.452 135.251 119 135z"/>
<path style="fill:#ced6cd; stroke:none;" d="M54 136C59.951 138.497 68.5798 137 75 137L122 137C116.049 134.503 107.42 136 101 136L54 136z"/>
<path style="fill:#f8e0a1; stroke:none;" d="M153 140C154.506 140.683 155.315 140.826 157 141C155.494 140.317 154.685 140.174 153 140z"/>
<path style="fill:#f5d174; stroke:none;" d="M152 141C152.582 148.633 158.742 148.869 159 141L152 141z"/>
<path style="fill:#f8de99; stroke:none;" d="M151 142C151.335 146.394 152.556 148.291 157 149C154.512 146.871 152.773 144.736 151 142z"/>
<path style="fill:#faebc4; stroke:none;" d="M159 142L159 146C159.71 144.241 159.71 143.759 159 142z"/>
<path style="fill:#f3f6ef; stroke:none;" d="M125 160L131 157C128.099 156.517 126.592 157.59 125 160z"/>
<path style="fill:#fcefcf; stroke:none;" d="M32 165L37 164C34.6996 163.084 33.6232 163.121 32 165z"/>
<path style="fill:#f7da8f; stroke:none;" d="M33 164C34.506 164.683 35.3148 164.826 37 165C35.494 164.317 34.6852 164.174 33 164z"/>
<path style="fill:#f5d174; stroke:none;" d="M31 165C31.264 173.041 37.736 173.041 38 165L31 165z"/>
<path style="fill:#f8dfa0; stroke:none;" d="M38 165L38 170C38.8299 167.97 38.8299 167.03 38 165z"/>
<path style="fill:#fbebc3; stroke:none;" d="M30 166L30 170C30.7102 168.241 30.7102 167.759 30 166z"/>
<path style="fill:#fdf3db; stroke:none;" d="M39 166L39 170C39.7102 168.241 39.7102 167.759 39 166z"/>
<path style="fill:#f5f7f2; stroke:none;" d="M78 168C82.974 170.087 89.638 169 95 169C90.026 166.913 83.362 168 78 168z"/>
<path style="fill:#fcf1d4; stroke:none;" d="M32 172C33.769 172.779 35.0359 172.912 37 173C35.231 172.221 33.9641 172.088 32 172z"/>
</svg>
